<svg xmlns="http://www.w3.org/2000/svg" version="1.1" xmlns:xlink="http://www.w3.org/1999/xlink" xmlns:svgjs="http://svgjs.dev/svgjs" viewBox="0 0 800 800" width="800" height="800"><g stroke-width="1.5" stroke="hsla(0, 0%, 100%, 1.00)" fill="none"><rect width="8.157894736842106" height="8.157894736842106" x="-4.078947368421053" y="-4.078947368421053" fill="hsla(0, 0%, 100%, 1.00)" stroke="none"></rect><rect width="8.157894736842106" height="8.157894736842106" x="40.36549707602339" y="-4.078947368421053" fill="hsla(0, 0%, 100%, 1.00)" stroke="none"></rect><rect width="8.157894736842106" height="8.157894736842106" x="84.80994152046783" y="-4.078947368421053" fill="hsla(0, 0%, 100%, 1.00)" stroke="none"></rect><rect width="8.157894736842106" height="8.157894736842106" x="129.25438596491227" y="-4.078947368421053" fill="hsla(0, 0%, 100%, 1.00)" stroke="none"></rect><rect width="8.157894736842106" height="8.157894736842106" x="173.69883040935673" y="-4.078947368421053" fill="hsla(0, 0%, 100%, 1.00)" stroke="none"></rect><rect width="8.157894736842106" height="8.157894736842106" x="218.1432748538012" y="-4.078947368421053" fill="hsla(0, 0%, 100%, 1.00)" stroke="none"></rect><rect width="8.157894736842106" height="8.157894736842106" x="262.58771929824564" y="-4.078947368421053" fill="hsla(0, 0%, 100%, 1.00)" stroke="none"></rect><rect width="8.157894736842106" height="8.157894736842106" x="307.0321637426901" y="-4.078947368421053" fill="hsla(0, 0%, 100%, 1.00)" stroke="none"></rect><rect width="8.157894736842106" height="8.157894736842106" x="351.47660818713456" y="-4.078947368421053" fill="hsla(0, 0%, 100%, 1.00)" stroke="none"></rect><rect width="8.157894736842106" height="8.157894736842106" x="395.921052631579" y="-4.078947368421053" fill="hsla(0, 0%, 100%, 1.00)" stroke="none"></rect><rect width="8.157894736842106" height="8.157894736842106" x="440.3654970760235" y="-4.078947368421053" fill="hsla(0, 0%, 100%, 1.00)" stroke="none"></rect><rect width="8.157894736842106" height="8.157894736842106" x="484.80994152046793" y="-4.078947368421053" fill="hsla(0, 0%, 100%, 1.00)" stroke="none"></rect><rect width="8.157894736842106" height="8.157894736842106" x="529.2543859649123" y="-4.078947368421053" fill="hsla(0, 0%, 100%, 1.00)" stroke="none"></rect><rect width="8.157894736842106" height="8.157894736842106" x="573.6988304093568" y="-4.078947368421053" fill="hsla(0, 0%, 100%, 1.00)" stroke="none"></rect><rect width="8.157894736842106" height="8.157894736842106" x="618.1432748538012" y="-4.078947368421053" fill="hsla(0, 0%, 100%, 1.00)" stroke="none"></rect><rect width="8.157894736842106" height="8.157894736842106" x="662.5877192982457" y="-4.078947368421053" fill="hsla(0, 0%, 100%, 1.00)" stroke="none"></rect><rect width="8.157894736842106" height="8.157894736842106" x="707.0321637426902" y="-4.078947368421053" fill="hsla(0, 0%, 100%, 1.00)" stroke="none"></rect><rect width="8.157894736842106" height="8.157894736842106" x="751.4766081871346" y="-4.078947368421053" fill="hsla(0, 0%, 100%, 1.00)" stroke="none"></rect><rect width="8.157894736842106" height="8.157894736842106" x="795.9210526315791" y="-4.078947368421053" fill="hsla(0, 0%, 100%, 1.00)" stroke="none"></rect><rect width="8.157894736842106" height="8.157894736842106" x="-4.078947368421053" y="40.36549707602339" fill="hsla(0, 0%, 100%, 1.00)" stroke="none"></rect><rect width="8.157894736842106" height="8.157894736842106" x="40.36549707602339" y="40.36549707602339" fill="hsla(0, 0%, 100%, 1.00)" stroke="none"></rect><rect width="8.157894736842106" height="8.157894736842106" x="84.80994152046783" y="40.36549707602339" fill="hsla(0, 0%, 100%, 1.00)" stroke="none"></rect><rect width="8.157894736842106" height="8.157894736842106" x="129.25438596491227" y="40.36549707602339" fill="hsla(0, 0%, 100%, 1.00)" stroke="none"></rect><rect width="8.157894736842106" height="8.157894736842106" x="173.69883040935673" y="40.36549707602339"></rect><rect width="8.157894736842106" height="8.157894736842106" x="218.1432748538012" y="40.36549707602339"></rect><rect width="8.157894736842106" height="8.157894736842106" x="262.58771929824564" y="40.36549707602339"></rect><rect width="8.157894736842106" height="8.157894736842106" x="307.0321637426901" y="40.36549707602339"></rect><rect width="8.157894736842106" height="8.157894736842106" x="351.47660818713456" y="40.36549707602339" fill="hsla(0, 0%, 100%, 1.00)" stroke="none"></rect><rect width="8.157894736842106" height="8.157894736842106" x="395.921052631579" y="40.36549707602339"></rect><rect width="8.157894736842106" height="8.157894736842106" x="440.3654970760235" y="40.36549707602339" fill="hsla(0, 0%, 100%, 1.00)" stroke="none"></rect><rect width="8.157894736842106" height="8.157894736842106" x="484.80994152046793" y="40.36549707602339"></rect><rect width="8.157894736842106" height="8.157894736842106" x="529.2543859649123" y="40.36549707602339" fill="hsla(0, 0%, 100%, 1.00)" stroke="none"></rect><rect width="8.157894736842106" height="8.157894736842106" x="573.6988304093568" y="40.36549707602339" fill="hsla(0, 0%, 100%, 1.00)" stroke="none"></rect><rect width="8.157894736842106" height="8.157894736842106" x="618.1432748538012" y="40.36549707602339" fill="hsla(0, 0%, 100%, 1.00)" stroke="none"></rect><rect width="8.157894736842106" height="8.157894736842106" x="662.5877192982457" y="40.36549707602339"></rect><rect width="8.157894736842106" height="8.157894736842106" x="707.0321637426902" y="40.36549707602339" fill="hsla(0, 0%, 100%, 1.00)" stroke="none"></rect><rect width="8.157894736842106" height="8.157894736842106" x="751.4766081871346" y="40.36549707602339" fill="hsla(0, 0%, 100%, 1.00)" stroke="none"></rect><rect width="8.157894736842106" height="8.157894736842106" x="795.9210526315791" y="40.36549707602339" fill="hsla(0, 0%, 100%, 1.00)" stroke="none"></rect><rect width="8.157894736842106" height="8.157894736842106" x="-4.078947368421053" y="84.80994152046783" fill="hsla(0, 0%, 100%, 1.00)" stroke="none"></rect><rect width="8.157894736842106" height="8.157894736842106" x="40.36549707602339" y="84.80994152046783" fill="hsla(0, 0%, 100%, 1.00)" stroke="none"></rect><rect width="8.157894736842106" height="8.157894736842106" x="84.80994152046783" y="84.80994152046783" fill="hsla(0, 0%, 100%, 1.00)" stroke="none"></rect><rect width="8.157894736842106" height="8.157894736842106" x="129.25438596491227" y="84.80994152046783"></rect><rect width="8.157894736842106" height="8.157894736842106" x="173.69883040935673" y="84.80994152046783"></rect><rect width="8.157894736842106" height="8.157894736842106" x="218.1432748538012" y="84.80994152046783" fill="hsla(0, 0%, 100%, 1.00)" stroke="none"></rect><rect width="8.157894736842106" height="8.157894736842106" x="262.58771929824564" y="84.80994152046783" fill="hsla(0, 0%, 100%, 1.00)" stroke="none"></rect><rect width="8.157894736842106" height="8.157894736842106" x="307.0321637426901" y="84.80994152046783" fill="hsla(0, 0%, 100%, 1.00)" stroke="none"></rect><rect width="8.157894736842106" height="8.157894736842106" x="351.47660818713456" y="84.80994152046783" fill="hsla(0, 0%, 100%, 1.00)" stroke="none"></rect><rect width="8.157894736842106" height="8.157894736842106" x="395.921052631579" y="84.80994152046783" fill="hsla(0, 0%, 100%, 1.00)" stroke="none"></rect><rect width="8.157894736842106" height="8.157894736842106" x="440.3654970760235" y="84.80994152046783" fill="hsla(0, 0%, 100%, 1.00)" stroke="none"></rect><rect width="8.157894736842106" height="8.157894736842106" x="484.80994152046793" y="84.80994152046783" fill="hsla(0, 0%, 100%, 1.00)" stroke="none"></rect><rect width="8.157894736842106" height="8.157894736842106" x="529.2543859649123" y="84.80994152046783"></rect><rect width="8.157894736842106" height="8.157894736842106" x="573.6988304093568" y="84.80994152046783"></rect><rect width="8.157894736842106" height="8.157894736842106" x="618.1432748538012" y="84.80994152046783" fill="hsla(0, 0%, 100%, 1.00)" stroke="none"></rect><rect width="8.157894736842106" height="8.157894736842106" x="662.5877192982457" y="84.80994152046783" fill="hsla(0, 0%, 100%, 1.00)" stroke="none"></rect><rect width="8.157894736842106" height="8.157894736842106" x="707.0321637426902" y="84.80994152046783"></rect><rect width="8.157894736842106" height="8.157894736842106" x="751.4766081871346" y="84.80994152046783" fill="hsla(0, 0%, 100%, 1.00)" stroke="none"></rect><rect width="8.157894736842106" height="8.157894736842106" x="795.9210526315791" y="84.80994152046783" fill="hsla(0, 0%, 100%, 1.00)" stroke="none"></rect><rect width="8.157894736842106" height="8.157894736842106" x="-4.078947368421053" y="129.25438596491227" fill="hsla(0, 0%, 100%, 1.00)" stroke="none"></rect><rect width="8.157894736842106" height="8.157894736842106" x="40.36549707602339" y="129.25438596491227" fill="hsla(0, 0%, 100%, 1.00)" stroke="none"></rect><rect width="8.157894736842106" height="8.157894736842106" x="84.80994152046783" y="129.25438596491227"></rect><rect width="8.157894736842106" height="8.157894736842106" x="129.25438596491227" y="129.25438596491227"></rect><rect width="8.157894736842106" height="8.157894736842106" x="173.69883040935673" y="129.25438596491227"></rect><rect width="8.157894736842106" height="8.157894736842106" x="218.1432748538012" y="129.25438596491227" fill="hsla(0, 0%, 100%, 1.00)" stroke="none"></rect><rect width="8.157894736842106" height="8.157894736842106" x="262.58771929824564" y="129.25438596491227" fill="hsla(0, 0%, 100%, 1.00)" stroke="none"></rect><rect width="8.157894736842106" height="8.157894736842106" x="307.0321637426901" y="129.25438596491227"></rect><rect width="8.157894736842106" height="8.157894736842106" x="351.47660818713456" y="129.25438596491227" fill="hsla(0, 0%, 100%, 1.00)" stroke="none"></rect><rect width="8.157894736842106" height="8.157894736842106" x="395.921052631579" y="129.25438596491227" fill="hsla(0, 0%, 100%, 1.00)" stroke="none"></rect><rect width="8.157894736842106" height="8.157894736842106" x="440.3654970760235" y="129.25438596491227" fill="hsla(0, 0%, 100%, 1.00)" stroke="none"></rect><rect width="8.157894736842106" height="8.157894736842106" x="484.80994152046793" y="129.25438596491227" fill="hsla(0, 0%, 100%, 1.00)" stroke="none"></rect><rect width="8.157894736842106" height="8.157894736842106" x="529.2543859649123" y="129.25438596491227" fill="hsla(0, 0%, 100%, 1.00)" stroke="none"></rect><rect width="8.157894736842106" height="8.157894736842106" x="573.6988304093568" y="129.25438596491227" fill="hsla(0, 0%, 100%, 1.00)" stroke="none"></rect><rect width="8.157894736842106" height="8.157894736842106" x="618.1432748538012" y="129.25438596491227" fill="hsla(0, 0%, 100%, 1.00)" stroke="none"></rect><rect width="8.157894736842106" height="8.157894736842106" x="662.5877192982457" y="129.25438596491227" fill="hsla(0, 0%, 100%, 1.00)" stroke="none"></rect><rect width="8.157894736842106" height="8.157894736842106" x="707.0321637426902" y="129.25438596491227" fill="hsla(0, 0%, 100%, 1.00)" stroke="none"></rect><rect width="8.157894736842106" height="8.157894736842106" x="751.4766081871346" y="129.25438596491227" fill="hsla(0, 0%, 100%, 1.00)" stroke="none"></rect><rect width="8.157894736842106" height="8.157894736842106" x="795.9210526315791" y="129.25438596491227" fill="hsla(0, 0%, 100%, 1.00)" stroke="none"></rect><rect width="8.157894736842106" height="8.157894736842106" x="-4.078947368421053" y="173.69883040935673" fill="hsla(0, 0%, 100%, 1.00)" stroke="none"></rect><rect width="8.157894736842106" height="8.157894736842106" x="40.36549707602339" y="173.69883040935673" fill="hsla(0, 0%, 100%, 1.00)" stroke="none"></rect><rect width="8.157894736842106" height="8.157894736842106" x="84.80994152046783" y="173.69883040935673" fill="hsla(0, 0%, 100%, 1.00)" stroke="none"></rect><rect width="8.157894736842106" height="8.157894736842106" x="129.25438596491227" y="173.69883040935673" fill="hsla(0, 0%, 100%, 1.00)" stroke="none"></rect><rect width="8.157894736842106" height="8.157894736842106" x="173.69883040935673" y="173.69883040935673" fill="hsla(0, 0%, 100%, 1.00)" stroke="none"></rect><rect width="8.157894736842106" height="8.157894736842106" x="218.1432748538012" y="173.69883040935673" fill="hsla(0, 0%, 100%, 1.00)" stroke="none"></rect><rect width="8.157894736842106" height="8.157894736842106" x="262.58771929824564" y="173.69883040935673" fill="hsla(0, 0%, 100%, 1.00)" stroke="none"></rect><rect width="8.157894736842106" height="8.157894736842106" x="307.0321637426901" y="173.69883040935673" fill="hsla(0, 0%, 100%, 1.00)" stroke="none"></rect><rect width="8.157894736842106" height="8.157894736842106" x="351.47660818713456" y="173.69883040935673"></rect><rect width="8.157894736842106" height="8.157894736842106" x="395.921052631579" y="173.69883040935673" fill="hsla(0, 0%, 100%, 1.00)" stroke="none"></rect><rect width="8.157894736842106" height="8.157894736842106" x="440.3654970760235" y="173.69883040935673" fill="hsla(0, 0%, 100%, 1.00)" stroke="none"></rect><rect width="8.157894736842106" height="8.157894736842106" x="484.80994152046793" y="173.69883040935673" fill="hsla(0, 0%, 100%, 1.00)" stroke="none"></rect><rect width="8.157894736842106" height="8.157894736842106" x="529.2543859649123" y="173.69883040935673"></rect><rect width="8.157894736842106" height="8.157894736842106" x="573.6988304093568" y="173.69883040935673" fill="hsla(0, 0%, 100%, 1.00)" stroke="none"></rect><rect width="8.157894736842106" height="8.157894736842106" x="618.1432748538012" y="173.69883040935673" fill="hsla(0, 0%, 100%, 1.00)" stroke="none"></rect><rect width="8.157894736842106" height="8.157894736842106" x="662.5877192982457" y="173.69883040935673" fill="hsla(0, 0%, 100%, 1.00)" stroke="none"></rect><rect width="8.157894736842106" height="8.157894736842106" x="707.0321637426902" y="173.69883040935673"></rect><rect width="8.157894736842106" height="8.157894736842106" x="751.4766081871346" y="173.69883040935673" fill="hsla(0, 0%, 100%, 1.00)" stroke="none"></rect><rect width="8.157894736842106" height="8.157894736842106" x="795.9210526315791" y="173.69883040935673" fill="hsla(0, 0%, 100%, 1.00)" stroke="none"></rect><rect width="8.157894736842106" height="8.157894736842106" x="-4.078947368421053" y="218.1432748538012" fill="hsla(0, 0%, 100%, 1.00)" stroke="none"></rect><rect width="8.157894736842106" height="8.157894736842106" x="40.36549707602339" y="218.1432748538012"></rect><rect width="8.157894736842106" height="8.157894736842106" x="84.80994152046783" y="218.1432748538012" fill="hsla(0, 0%, 100%, 1.00)" stroke="none"></rect><rect width="8.157894736842106" height="8.157894736842106" x="129.25438596491227" y="218.1432748538012" fill="hsla(0, 0%, 100%, 1.00)" stroke="none"></rect><rect width="8.157894736842106" height="8.157894736842106" x="173.69883040935673" y="218.1432748538012" fill="hsla(0, 0%, 100%, 1.00)" stroke="none"></rect><rect width="8.157894736842106" height="8.157894736842106" x="218.1432748538012" y="218.1432748538012"></rect><rect width="8.157894736842106" height="8.157894736842106" x="262.58771929824564" y="218.1432748538012" fill="hsla(0, 0%, 100%, 1.00)" stroke="none"></rect><rect width="8.157894736842106" height="8.157894736842106" x="307.0321637426901" y="218.1432748538012" fill="hsla(0, 0%, 100%, 1.00)" stroke="none"></rect><rect width="8.157894736842106" height="8.157894736842106" x="351.47660818713456" y="218.1432748538012"></rect><rect width="8.157894736842106" height="8.157894736842106" x="395.921052631579" y="218.1432748538012" fill="hsla(0, 0%, 100%, 1.00)" stroke="none"></rect><rect width="8.157894736842106" height="8.157894736842106" x="440.3654970760235" y="218.1432748538012"></rect><rect width="8.157894736842106" height="8.157894736842106" x="484.80994152046793" y="218.1432748538012" fill="hsla(0, 0%, 100%, 1.00)" stroke="none"></rect><rect width="8.157894736842106" height="8.157894736842106" x="529.2543859649123" y="218.1432748538012" fill="hsla(0, 0%, 100%, 1.00)" stroke="none"></rect><rect width="8.157894736842106" height="8.157894736842106" x="573.6988304093568" y="218.1432748538012" fill="hsla(0, 0%, 100%, 1.00)" stroke="none"></rect><rect width="8.157894736842106" height="8.157894736842106" x="618.1432748538012" y="218.1432748538012"></rect><rect width="8.157894736842106" height="8.157894736842106" x="662.5877192982457" y="218.1432748538012" fill="hsla(0, 0%, 100%, 1.00)" stroke="none"></rect><rect width="8.157894736842106" height="8.157894736842106" x="707.0321637426902" y="218.1432748538012" fill="hsla(0, 0%, 100%, 1.00)" stroke="none"></rect><rect width="8.157894736842106" height="8.157894736842106" x="751.4766081871346" y="218.1432748538012" fill="hsla(0, 0%, 100%, 1.00)" stroke="none"></rect><rect width="8.157894736842106" height="8.157894736842106" x="795.9210526315791" y="218.1432748538012" fill="hsla(0, 0%, 100%, 1.00)" stroke="none"></rect><rect width="8.157894736842106" height="8.157894736842106" x="-4.078947368421053" y="262.58771929824564" fill="hsla(0, 0%, 100%, 1.00)" stroke="none"></rect><rect width="8.157894736842106" height="8.157894736842106" x="40.36549707602339" y="262.58771929824564"></rect><rect width="8.157894736842106" height="8.157894736842106" x="84.80994152046783" y="262.58771929824564"></rect><rect width="8.157894736842106" height="8.157894736842106" x="129.25438596491227" y="262.58771929824564" fill="hsla(0, 0%, 100%, 1.00)" stroke="none"></rect><rect width="8.157894736842106" height="8.157894736842106" x="173.69883040935673" y="262.58771929824564" fill="hsla(0, 0%, 100%, 1.00)" stroke="none"></rect><rect width="8.157894736842106" height="8.157894736842106" x="218.1432748538012" y="262.58771929824564" fill="hsla(0, 0%, 100%, 1.00)" stroke="none"></rect><rect width="8.157894736842106" height="8.157894736842106" x="262.58771929824564" y="262.58771929824564" fill="hsla(0, 0%, 100%, 1.00)" stroke="none"></rect><rect width="8.157894736842106" height="8.157894736842106" x="307.0321637426901" y="262.58771929824564" fill="hsla(0, 0%, 100%, 1.00)" stroke="none"></rect><rect width="8.157894736842106" height="8.157894736842106" x="351.47660818713456" y="262.58771929824564" fill="hsla(0, 0%, 100%, 1.00)" stroke="none"></rect><rect width="8.157894736842106" height="8.157894736842106" x="395.921052631579" y="262.58771929824564" fill="hsla(0, 0%, 100%, 1.00)" stroke="none"></rect><rect width="8.157894736842106" height="8.157894736842106" x="440.3654970760235" y="262.58771929824564" fill="hsla(0, 0%, 100%, 1.00)" stroke="none"></rect><rect width="8.157894736842106" height="8.157894736842106" x="484.80994152046793" y="262.58771929824564" fill="hsla(0, 0%, 100%, 1.00)" stroke="none"></rect><rect width="8.157894736842106" height="8.157894736842106" x="529.2543859649123" y="262.58771929824564" fill="hsla(0, 0%, 100%, 1.00)" stroke="none"></rect><rect width="8.157894736842106" height="8.157894736842106" x="573.6988304093568" y="262.58771929824564" fill="hsla(0, 0%, 100%, 1.00)" stroke="none"></rect><rect width="8.157894736842106" height="8.157894736842106" x="618.1432748538012" y="262.58771929824564" fill="hsla(0, 0%, 100%, 1.00)" stroke="none"></rect><rect width="8.157894736842106" height="8.157894736842106" x="662.5877192982457" y="262.58771929824564" fill="hsla(0, 0%, 100%, 1.00)" stroke="none"></rect><rect width="8.157894736842106" height="8.157894736842106" x="707.0321637426902" y="262.58771929824564" fill="hsla(0, 0%, 100%, 1.00)" stroke="none"></rect><rect width="8.157894736842106" height="8.157894736842106" x="751.4766081871346" y="262.58771929824564" fill="hsla(0, 0%, 100%, 1.00)" stroke="none"></rect><rect width="8.157894736842106" height="8.157894736842106" x="795.9210526315791" y="262.58771929824564" fill="hsla(0, 0%, 100%, 1.00)" stroke="none"></rect><rect width="8.157894736842106" height="8.157894736842106" x="-4.078947368421053" y="307.0321637426901" fill="hsla(0, 0%, 100%, 1.00)" stroke="none"></rect><rect width="8.157894736842106" height="8.157894736842106" x="40.36549707602339" y="307.0321637426901" fill="hsla(0, 0%, 100%, 1.00)" stroke="none"></rect><rect width="8.157894736842106" height="8.157894736842106" x="84.80994152046783" y="307.0321637426901"></rect><rect width="8.157894736842106" height="8.157894736842106" x="129.25438596491227" y="307.0321637426901" fill="hsla(0, 0%, 100%, 1.00)" stroke="none"></rect><rect width="8.157894736842106" height="8.157894736842106" x="173.69883040935673" y="307.0321637426901"></rect><rect width="8.157894736842106" height="8.157894736842106" x="218.1432748538012" y="307.0321637426901" fill="hsla(0, 0%, 100%, 1.00)" stroke="none"></rect><rect width="8.157894736842106" height="8.157894736842106" x="262.58771929824564" y="307.0321637426901" fill="hsla(0, 0%, 100%, 1.00)" stroke="none"></rect><rect width="8.157894736842106" height="8.157894736842106" x="307.0321637426901" y="307.0321637426901" fill="hsla(0, 0%, 100%, 1.00)" stroke="none"></rect><rect width="8.157894736842106" height="8.157894736842106" x="351.47660818713456" y="307.0321637426901" fill="hsla(0, 0%, 100%, 1.00)" stroke="none"></rect><rect width="8.157894736842106" height="8.157894736842106" x="395.921052631579" y="307.0321637426901" fill="hsla(0, 0%, 100%, 1.00)" stroke="none"></rect><rect width="8.157894736842106" height="8.157894736842106" x="440.3654970760235" y="307.0321637426901"></rect><rect width="8.157894736842106" height="8.157894736842106" x="484.80994152046793" y="307.0321637426901"></rect><rect width="8.157894736842106" height="8.157894736842106" x="529.2543859649123" y="307.0321637426901" fill="hsla(0, 0%, 100%, 1.00)" stroke="none"></rect><rect width="8.157894736842106" height="8.157894736842106" x="573.6988304093568" y="307.0321637426901" fill="hsla(0, 0%, 100%, 1.00)" stroke="none"></rect><rect width="8.157894736842106" height="8.157894736842106" x="618.1432748538012" y="307.0321637426901" fill="hsla(0, 0%, 100%, 1.00)" stroke="none"></rect><rect width="8.157894736842106" height="8.157894736842106" x="662.5877192982457" y="307.0321637426901" fill="hsla(0, 0%, 100%, 1.00)" stroke="none"></rect><rect width="8.157894736842106" height="8.157894736842106" x="707.0321637426902" y="307.0321637426901" fill="hsla(0, 0%, 100%, 1.00)" stroke="none"></rect><rect width="8.157894736842106" height="8.157894736842106" x="751.4766081871346" y="307.0321637426901" fill="hsla(0, 0%, 100%, 1.00)" stroke="none"></rect><rect width="8.157894736842106" height="8.157894736842106" x="795.9210526315791" y="307.0321637426901" fill="hsla(0, 0%, 100%, 1.00)" stroke="none"></rect><rect width="8.157894736842106" height="8.157894736842106" x="-4.078947368421053" y="351.47660818713456" fill="hsla(0, 0%, 100%, 1.00)" stroke="none"></rect><rect width="8.157894736842106" height="8.157894736842106" x="40.36549707602339" y="351.47660818713456" fill="hsla(0, 0%, 100%, 1.00)" stroke="none"></rect><rect width="8.157894736842106" height="8.157894736842106" x="84.80994152046783" y="351.47660818713456" fill="hsla(0, 0%, 100%, 1.00)" stroke="none"></rect><rect width="8.157894736842106" height="8.157894736842106" x="129.25438596491227" y="351.47660818713456"></rect><rect width="8.157894736842106" height="8.157894736842106" x="173.69883040935673" y="351.47660818713456" fill="hsla(0, 0%, 100%, 1.00)" stroke="none"></rect><rect width="8.157894736842106" height="8.157894736842106" x="218.1432748538012" y="351.47660818713456" fill="hsla(0, 0%, 100%, 1.00)" stroke="none"></rect><rect width="8.157894736842106" height="8.157894736842106" x="262.58771929824564" y="351.47660818713456"></rect><rect width="8.157894736842106" height="8.157894736842106" x="307.0321637426901" y="351.47660818713456" fill="hsla(0, 0%, 100%, 1.00)" stroke="none"></rect><rect width="8.157894736842106" height="8.157894736842106" x="351.47660818713456" y="351.47660818713456"></rect><rect width="8.157894736842106" height="8.157894736842106" x="395.921052631579" y="351.47660818713456" fill="hsla(0, 0%, 100%, 1.00)" stroke="none"></rect><rect width="8.157894736842106" height="8.157894736842106" x="440.3654970760235" y="351.47660818713456"></rect><rect width="8.157894736842106" height="8.157894736842106" x="484.80994152046793" y="351.47660818713456" fill="hsla(0, 0%, 100%, 1.00)" stroke="none"></rect><rect width="8.157894736842106" height="8.157894736842106" x="529.2543859649123" y="351.47660818713456" fill="hsla(0, 0%, 100%, 1.00)" stroke="none"></rect><rect width="8.157894736842106" height="8.157894736842106" x="573.6988304093568" y="351.47660818713456"></rect><rect width="8.157894736842106" height="8.157894736842106" x="618.1432748538012" y="351.47660818713456" fill="hsla(0, 0%, 100%, 1.00)" stroke="none"></rect><rect width="8.157894736842106" height="8.157894736842106" x="662.5877192982457" y="351.47660818713456" fill="hsla(0, 0%, 100%, 1.00)" stroke="none"></rect><rect width="8.157894736842106" height="8.157894736842106" x="707.0321637426902" y="351.47660818713456"></rect><rect width="8.157894736842106" height="8.157894736842106" x="751.4766081871346" y="351.47660818713456" fill="hsla(0, 0%, 100%, 1.00)" stroke="none"></rect><rect width="8.157894736842106" height="8.157894736842106" x="795.9210526315791" y="351.47660818713456" fill="hsla(0, 0%, 100%, 1.00)" stroke="none"></rect><rect width="8.157894736842106" height="8.157894736842106" x="-4.078947368421053" y="395.921052631579" fill="hsla(0, 0%, 100%, 1.00)" stroke="none"></rect><rect width="8.157894736842106" height="8.157894736842106" x="40.36549707602339" y="395.921052631579" fill="hsla(0, 0%, 100%, 1.00)" stroke="none"></rect><rect width="8.157894736842106" height="8.157894736842106" x="84.80994152046783" y="395.921052631579" fill="hsla(0, 0%, 100%, 1.00)" stroke="none"></rect><rect width="8.157894736842106" height="8.157894736842106" x="129.25438596491227" y="395.921052631579" fill="hsla(0, 0%, 100%, 1.00)" stroke="none"></rect><rect width="8.157894736842106" height="8.157894736842106" x="173.69883040935673" y="395.921052631579" fill="hsla(0, 0%, 100%, 1.00)" stroke="none"></rect><rect width="8.157894736842106" height="8.157894736842106" x="218.1432748538012" y="395.921052631579" fill="hsla(0, 0%, 100%, 1.00)" stroke="none"></rect><rect width="8.157894736842106" height="8.157894736842106" x="262.58771929824564" y="395.921052631579" fill="hsla(0, 0%, 100%, 1.00)" stroke="none"></rect><rect width="8.157894736842106" height="8.157894736842106" x="307.0321637426901" y="395.921052631579"></rect><rect width="8.157894736842106" height="8.157894736842106" x="351.47660818713456" y="395.921052631579" fill="hsla(0, 0%, 100%, 1.00)" stroke="none"></rect><rect width="8.157894736842106" height="8.157894736842106" x="395.921052631579" y="395.921052631579" fill="hsla(0, 0%, 100%, 1.00)" stroke="none"></rect><rect width="8.157894736842106" height="8.157894736842106" x="440.3654970760235" y="395.921052631579" fill="hsla(0, 0%, 100%, 1.00)" stroke="none"></rect><rect width="8.157894736842106" height="8.157894736842106" x="484.80994152046793" y="395.921052631579" fill="hsla(0, 0%, 100%, 1.00)" stroke="none"></rect><rect width="8.157894736842106" height="8.157894736842106" x="529.2543859649123" y="395.921052631579" fill="hsla(0, 0%, 100%, 1.00)" stroke="none"></rect><rect width="8.157894736842106" height="8.157894736842106" x="573.6988304093568" y="395.921052631579" fill="hsla(0, 0%, 100%, 1.00)" stroke="none"></rect><rect width="8.157894736842106" height="8.157894736842106" x="618.1432748538012" y="395.921052631579" fill="hsla(0, 0%, 100%, 1.00)" stroke="none"></rect><rect width="8.157894736842106" height="8.157894736842106" x="662.5877192982457" y="395.921052631579" fill="hsla(0, 0%, 100%, 1.00)" stroke="none"></rect><rect width="8.157894736842106" height="8.157894736842106" x="707.0321637426902" y="395.921052631579"></rect><rect width="8.157894736842106" height="8.157894736842106" x="751.4766081871346" y="395.921052631579" fill="hsla(0, 0%, 100%, 1.00)" stroke="none"></rect><rect width="8.157894736842106" height="8.157894736842106" x="795.9210526315791" y="395.921052631579" fill="hsla(0, 0%, 100%, 1.00)" stroke="none"></rect><rect width="8.157894736842106" height="8.157894736842106" x="-4.078947368421053" y="440.3654970760235" fill="hsla(0, 0%, 100%, 1.00)" stroke="none"></rect><rect width="8.157894736842106" height="8.157894736842106" x="40.36549707602339" y="440.3654970760235"></rect><rect width="8.157894736842106" height="8.157894736842106" x="84.80994152046783" y="440.3654970760235" fill="hsla(0, 0%, 100%, 1.00)" stroke="none"></rect><rect width="8.157894736842106" height="8.157894736842106" x="129.25438596491227" y="440.3654970760235"></rect><rect width="8.157894736842106" height="8.157894736842106" x="173.69883040935673" y="440.3654970760235" fill="hsla(0, 0%, 100%, 1.00)" stroke="none"></rect><rect width="8.157894736842106" height="8.157894736842106" x="218.1432748538012" y="440.3654970760235" fill="hsla(0, 0%, 100%, 1.00)" stroke="none"></rect><rect width="8.157894736842106" height="8.157894736842106" x="262.58771929824564" y="440.3654970760235" fill="hsla(0, 0%, 100%, 1.00)" stroke="none"></rect><rect width="8.157894736842106" height="8.157894736842106" x="307.0321637426901" y="440.3654970760235" fill="hsla(0, 0%, 100%, 1.00)" stroke="none"></rect><rect width="8.157894736842106" height="8.157894736842106" x="351.47660818713456" y="440.3654970760235" fill="hsla(0, 0%, 100%, 1.00)" stroke="none"></rect><rect width="8.157894736842106" height="8.157894736842106" x="395.921052631579" y="440.3654970760235" fill="hsla(0, 0%, 100%, 1.00)" stroke="none"></rect><rect width="8.157894736842106" height="8.157894736842106" x="440.3654970760235" y="440.3654970760235"></rect><rect width="8.157894736842106" height="8.157894736842106" x="484.80994152046793" y="440.3654970760235" fill="hsla(0, 0%, 100%, 1.00)" stroke="none"></rect><rect width="8.157894736842106" height="8.157894736842106" x="529.2543859649123" y="440.3654970760235"></rect><rect width="8.157894736842106" height="8.157894736842106" x="573.6988304093568" y="440.3654970760235"></rect><rect width="8.157894736842106" height="8.157894736842106" x="618.1432748538012" y="440.3654970760235"></rect><rect width="8.157894736842106" height="8.157894736842106" x="662.5877192982457" y="440.3654970760235" fill="hsla(0, 0%, 100%, 1.00)" stroke="none"></rect><rect width="8.157894736842106" height="8.157894736842106" x="707.0321637426902" y="440.3654970760235" fill="hsla(0, 0%, 100%, 1.00)" stroke="none"></rect><rect width="8.157894736842106" height="8.157894736842106" x="751.4766081871346" y="440.3654970760235" fill="hsla(0, 0%, 100%, 1.00)" stroke="none"></rect><rect width="8.157894736842106" height="8.157894736842106" x="795.9210526315791" y="440.3654970760235" fill="hsla(0, 0%, 100%, 1.00)" stroke="none"></rect><rect width="8.157894736842106" height="8.157894736842106" x="-4.078947368421053" y="484.80994152046793" fill="hsla(0, 0%, 100%, 1.00)" stroke="none"></rect><rect width="8.157894736842106" height="8.157894736842106" x="40.36549707602339" y="484.80994152046793" fill="hsla(0, 0%, 100%, 1.00)" stroke="none"></rect><rect width="8.157894736842106" height="8.157894736842106" x="84.80994152046783" y="484.80994152046793" fill="hsla(0, 0%, 100%, 1.00)" stroke="none"></rect><rect width="8.157894736842106" height="8.157894736842106" x="129.25438596491227" y="484.80994152046793" fill="hsla(0, 0%, 100%, 1.00)" stroke="none"></rect><rect width="8.157894736842106" height="8.157894736842106" x="173.69883040935673" y="484.80994152046793" fill="hsla(0, 0%, 100%, 1.00)" stroke="none"></rect><rect width="8.157894736842106" height="8.157894736842106" x="218.1432748538012" y="484.80994152046793" fill="hsla(0, 0%, 100%, 1.00)" stroke="none"></rect><rect width="8.157894736842106" height="8.157894736842106" x="262.58771929824564" y="484.80994152046793"></rect><rect width="8.157894736842106" height="8.157894736842106" x="307.0321637426901" y="484.80994152046793" fill="hsla(0, 0%, 100%, 1.00)" stroke="none"></rect><rect width="8.157894736842106" height="8.157894736842106" x="351.47660818713456" y="484.80994152046793" fill="hsla(0, 0%, 100%, 1.00)" stroke="none"></rect><rect width="8.157894736842106" height="8.157894736842106" x="395.921052631579" y="484.80994152046793"></rect><rect width="8.157894736842106" height="8.157894736842106" x="440.3654970760235" y="484.80994152046793"></rect><rect width="8.157894736842106" height="8.157894736842106" x="484.80994152046793" y="484.80994152046793" fill="hsla(0, 0%, 100%, 1.00)" stroke="none"></rect><rect width="8.157894736842106" height="8.157894736842106" x="529.2543859649123" y="484.80994152046793" fill="hsla(0, 0%, 100%, 1.00)" stroke="none"></rect><rect width="8.157894736842106" height="8.157894736842106" x="573.6988304093568" y="484.80994152046793"></rect><rect width="8.157894736842106" height="8.157894736842106" x="618.1432748538012" y="484.80994152046793" fill="hsla(0, 0%, 100%, 1.00)" stroke="none"></rect><rect width="8.157894736842106" height="8.157894736842106" x="662.5877192982457" y="484.80994152046793" fill="hsla(0, 0%, 100%, 1.00)" stroke="none"></rect><rect width="8.157894736842106" height="8.157894736842106" x="707.0321637426902" y="484.80994152046793" fill="hsla(0, 0%, 100%, 1.00)" stroke="none"></rect><rect width="8.157894736842106" height="8.157894736842106" x="751.4766081871346" y="484.80994152046793" fill="hsla(0, 0%, 100%, 1.00)" stroke="none"></rect><rect width="8.157894736842106" height="8.157894736842106" x="795.9210526315791" y="484.80994152046793" fill="hsla(0, 0%, 100%, 1.00)" stroke="none"></rect><rect width="8.157894736842106" height="8.157894736842106" x="-4.078947368421053" y="529.2543859649123" fill="hsla(0, 0%, 100%, 1.00)" stroke="none"></rect><rect width="8.157894736842106" height="8.157894736842106" x="40.36549707602339" y="529.2543859649123" fill="hsla(0, 0%, 100%, 1.00)" stroke="none"></rect><rect width="8.157894736842106" height="8.157894736842106" x="84.80994152046783" y="529.2543859649123" fill="hsla(0, 0%, 100%, 1.00)" stroke="none"></rect><rect width="8.157894736842106" height="8.157894736842106" x="129.25438596491227" y="529.2543859649123" fill="hsla(0, 0%, 100%, 1.00)" stroke="none"></rect><rect width="8.157894736842106" height="8.157894736842106" x="173.69883040935673" y="529.2543859649123" fill="hsla(0, 0%, 100%, 1.00)" stroke="none"></rect><rect width="8.157894736842106" height="8.157894736842106" x="218.1432748538012" y="529.2543859649123" fill="hsla(0, 0%, 100%, 1.00)" stroke="none"></rect><rect width="8.157894736842106" height="8.157894736842106" x="262.58771929824564" y="529.2543859649123"></rect><rect width="8.157894736842106" height="8.157894736842106" x="307.0321637426901" y="529.2543859649123" fill="hsla(0, 0%, 100%, 1.00)" stroke="none"></rect><rect width="8.157894736842106" height="8.157894736842106" x="351.47660818713456" y="529.2543859649123" fill="hsla(0, 0%, 100%, 1.00)" stroke="none"></rect><rect width="8.157894736842106" height="8.157894736842106" x="395.921052631579" y="529.2543859649123" fill="hsla(0, 0%, 100%, 1.00)" stroke="none"></rect><rect width="8.157894736842106" height="8.157894736842106" x="440.3654970760235" y="529.2543859649123" fill="hsla(0, 0%, 100%, 1.00)" stroke="none"></rect><rect width="8.157894736842106" height="8.157894736842106" x="484.80994152046793" y="529.2543859649123" fill="hsla(0, 0%, 100%, 1.00)" stroke="none"></rect><rect width="8.157894736842106" height="8.157894736842106" x="529.2543859649123" y="529.2543859649123" fill="hsla(0, 0%, 100%, 1.00)" stroke="none"></rect><rect width="8.157894736842106" height="8.157894736842106" x="573.6988304093568" y="529.2543859649123" fill="hsla(0, 0%, 100%, 1.00)" stroke="none"></rect><rect width="8.157894736842106" height="8.157894736842106" x="618.1432748538012" y="529.2543859649123"></rect><rect width="8.157894736842106" height="8.157894736842106" x="662.5877192982457" y="529.2543859649123" fill="hsla(0, 0%, 100%, 1.00)" stroke="none"></rect><rect width="8.157894736842106" height="8.157894736842106" x="707.0321637426902" y="529.2543859649123" fill="hsla(0, 0%, 100%, 1.00)" stroke="none"></rect><rect width="8.157894736842106" height="8.157894736842106" x="751.4766081871346" y="529.2543859649123" fill="hsla(0, 0%, 100%, 1.00)" stroke="none"></rect><rect width="8.157894736842106" height="8.157894736842106" x="795.9210526315791" y="529.2543859649123" fill="hsla(0, 0%, 100%, 1.00)" stroke="none"></rect><rect width="8.157894736842106" height="8.157894736842106" x="-4.078947368421053" y="573.6988304093568" fill="hsla(0, 0%, 100%, 1.00)" stroke="none"></rect><rect width="8.157894736842106" height="8.157894736842106" x="40.36549707602339" y="573.6988304093568"></rect><rect width="8.157894736842106" height="8.157894736842106" x="84.80994152046783" y="573.6988304093568" fill="hsla(0, 0%, 100%, 1.00)" stroke="none"></rect><rect width="8.157894736842106" height="8.157894736842106" x="129.25438596491227" y="573.6988304093568" fill="hsla(0, 0%, 100%, 1.00)" stroke="none"></rect><rect width="8.157894736842106" height="8.157894736842106" x="173.69883040935673" y="573.6988304093568" fill="hsla(0, 0%, 100%, 1.00)" stroke="none"></rect><rect width="8.157894736842106" height="8.157894736842106" x="218.1432748538012" y="573.6988304093568" fill="hsla(0, 0%, 100%, 1.00)" stroke="none"></rect><rect width="8.157894736842106" height="8.157894736842106" x="262.58771929824564" y="573.6988304093568" fill="hsla(0, 0%, 100%, 1.00)" stroke="none"></rect><rect width="8.157894736842106" height="8.157894736842106" x="307.0321637426901" y="573.6988304093568"></rect><rect width="8.157894736842106" height="8.157894736842106" x="351.47660818713456" y="573.6988304093568" fill="hsla(0, 0%, 100%, 1.00)" stroke="none"></rect><rect width="8.157894736842106" height="8.157894736842106" x="395.921052631579" y="573.6988304093568" fill="hsla(0, 0%, 100%, 1.00)" stroke="none"></rect><rect width="8.157894736842106" height="8.157894736842106" x="440.3654970760235" y="573.6988304093568" fill="hsla(0, 0%, 100%, 1.00)" stroke="none"></rect><rect width="8.157894736842106" height="8.157894736842106" x="484.80994152046793" y="573.6988304093568"></rect><rect width="8.157894736842106" height="8.157894736842106" x="529.2543859649123" y="573.6988304093568" fill="hsla(0, 0%, 100%, 1.00)" stroke="none"></rect><rect width="8.157894736842106" height="8.157894736842106" x="573.6988304093568" y="573.6988304093568" fill="hsla(0, 0%, 100%, 1.00)" stroke="none"></rect><rect width="8.157894736842106" height="8.157894736842106" x="618.1432748538012" y="573.6988304093568"></rect><rect width="8.157894736842106" height="8.157894736842106" x="662.5877192982457" y="573.6988304093568" fill="hsla(0, 0%, 100%, 1.00)" stroke="none"></rect><rect width="8.157894736842106" height="8.157894736842106" x="707.0321637426902" y="573.6988304093568" fill="hsla(0, 0%, 100%, 1.00)" stroke="none"></rect><rect width="8.157894736842106" height="8.157894736842106" x="751.4766081871346" y="573.6988304093568" fill="hsla(0, 0%, 100%, 1.00)" stroke="none"></rect><rect width="8.157894736842106" height="8.157894736842106" x="795.9210526315791" y="573.6988304093568" fill="hsla(0, 0%, 100%, 1.00)" stroke="none"></rect><rect width="8.157894736842106" height="8.157894736842106" x="-4.078947368421053" y="618.1432748538012" fill="hsla(0, 0%, 100%, 1.00)" stroke="none"></rect><rect width="8.157894736842106" height="8.157894736842106" x="40.36549707602339" y="618.1432748538012" fill="hsla(0, 0%, 100%, 1.00)" stroke="none"></rect><rect width="8.157894736842106" height="8.157894736842106" x="84.80994152046783" y="618.1432748538012" fill="hsla(0, 0%, 100%, 1.00)" stroke="none"></rect><rect width="8.157894736842106" height="8.157894736842106" x="129.25438596491227" y="618.1432748538012" fill="hsla(0, 0%, 100%, 1.00)" stroke="none"></rect><rect width="8.157894736842106" height="8.157894736842106" x="173.69883040935673" y="618.1432748538012"></rect><rect width="8.157894736842106" height="8.157894736842106" x="218.1432748538012" y="618.1432748538012" fill="hsla(0, 0%, 100%, 1.00)" stroke="none"></rect><rect width="8.157894736842106" height="8.157894736842106" x="262.58771929824564" y="618.1432748538012" fill="hsla(0, 0%, 100%, 1.00)" stroke="none"></rect><rect width="8.157894736842106" height="8.157894736842106" x="307.0321637426901" y="618.1432748538012" fill="hsla(0, 0%, 100%, 1.00)" stroke="none"></rect><rect width="8.157894736842106" height="8.157894736842106" x="351.47660818713456" y="618.1432748538012"></rect><rect width="8.157894736842106" height="8.157894736842106" x="395.921052631579" y="618.1432748538012" fill="hsla(0, 0%, 100%, 1.00)" stroke="none"></rect><rect width="8.157894736842106" height="8.157894736842106" x="440.3654970760235" y="618.1432748538012" fill="hsla(0, 0%, 100%, 1.00)" stroke="none"></rect><rect width="8.157894736842106" height="8.157894736842106" x="484.80994152046793" y="618.1432748538012" fill="hsla(0, 0%, 100%, 1.00)" stroke="none"></rect><rect width="8.157894736842106" height="8.157894736842106" x="529.2543859649123" y="618.1432748538012" fill="hsla(0, 0%, 100%, 1.00)" stroke="none"></rect><rect width="8.157894736842106" height="8.157894736842106" x="573.6988304093568" y="618.1432748538012" fill="hsla(0, 0%, 100%, 1.00)" stroke="none"></rect><rect width="8.157894736842106" height="8.157894736842106" x="618.1432748538012" y="618.1432748538012" fill="hsla(0, 0%, 100%, 1.00)" stroke="none"></rect><rect width="8.157894736842106" height="8.157894736842106" x="662.5877192982457" y="618.1432748538012"></rect><rect width="8.157894736842106" height="8.157894736842106" x="707.0321637426902" y="618.1432748538012" fill="hsla(0, 0%, 100%, 1.00)" stroke="none"></rect><rect width="8.157894736842106" height="8.157894736842106" x="751.4766081871346" y="618.1432748538012"></rect><rect width="8.157894736842106" height="8.157894736842106" x="795.9210526315791" y="618.1432748538012" fill="hsla(0, 0%, 100%, 1.00)" stroke="none"></rect><rect width="8.157894736842106" height="8.157894736842106" x="-4.078947368421053" y="662.5877192982457" fill="hsla(0, 0%, 100%, 1.00)" stroke="none"></rect><rect width="8.157894736842106" height="8.157894736842106" x="40.36549707602339" y="662.5877192982457" fill="hsla(0, 0%, 100%, 1.00)" stroke="none"></rect><rect width="8.157894736842106" height="8.157894736842106" x="84.80994152046783" y="662.5877192982457" fill="hsla(0, 0%, 100%, 1.00)" stroke="none"></rect><rect width="8.157894736842106" height="8.157894736842106" x="129.25438596491227" y="662.5877192982457" fill="hsla(0, 0%, 100%, 1.00)" stroke="none"></rect><rect width="8.157894736842106" height="8.157894736842106" x="173.69883040935673" y="662.5877192982457"></rect><rect width="8.157894736842106" height="8.157894736842106" x="218.1432748538012" y="662.5877192982457" fill="hsla(0, 0%, 100%, 1.00)" stroke="none"></rect><rect width="8.157894736842106" height="8.157894736842106" x="262.58771929824564" y="662.5877192982457" fill="hsla(0, 0%, 100%, 1.00)" stroke="none"></rect><rect width="8.157894736842106" height="8.157894736842106" x="307.0321637426901" y="662.5877192982457" fill="hsla(0, 0%, 100%, 1.00)" stroke="none"></rect><rect width="8.157894736842106" height="8.157894736842106" x="351.47660818713456" y="662.5877192982457" fill="hsla(0, 0%, 100%, 1.00)" stroke="none"></rect><rect width="8.157894736842106" height="8.157894736842106" x="395.921052631579" y="662.5877192982457" fill="hsla(0, 0%, 100%, 1.00)" stroke="none"></rect><rect width="8.157894736842106" height="8.157894736842106" x="440.3654970760235" y="662.5877192982457"></rect><rect width="8.157894736842106" height="8.157894736842106" x="484.80994152046793" y="662.5877192982457" fill="hsla(0, 0%, 100%, 1.00)" stroke="none"></rect><rect width="8.157894736842106" height="8.157894736842106" x="529.2543859649123" y="662.5877192982457" fill="hsla(0, 0%, 100%, 1.00)" stroke="none"></rect><rect width="8.157894736842106" height="8.157894736842106" x="573.6988304093568" y="662.5877192982457" fill="hsla(0, 0%, 100%, 1.00)" stroke="none"></rect><rect width="8.157894736842106" height="8.157894736842106" x="618.1432748538012" y="662.5877192982457" fill="hsla(0, 0%, 100%, 1.00)" stroke="none"></rect><rect width="8.157894736842106" height="8.157894736842106" x="662.5877192982457" y="662.5877192982457" fill="hsla(0, 0%, 100%, 1.00)" stroke="none"></rect><rect width="8.157894736842106" height="8.157894736842106" x="707.0321637426902" y="662.5877192982457" fill="hsla(0, 0%, 100%, 1.00)" stroke="none"></rect><rect width="8.157894736842106" height="8.157894736842106" x="751.4766081871346" y="662.5877192982457" fill="hsla(0, 0%, 100%, 1.00)" stroke="none"></rect><rect width="8.157894736842106" height="8.157894736842106" x="795.9210526315791" y="662.5877192982457" fill="hsla(0, 0%, 100%, 1.00)" stroke="none"></rect><rect width="8.157894736842106" height="8.157894736842106" x="-4.078947368421053" y="707.0321637426902" fill="hsla(0, 0%, 100%, 1.00)" stroke="none"></rect><rect width="8.157894736842106" height="8.157894736842106" x="40.36549707602339" y="707.0321637426902" fill="hsla(0, 0%, 100%, 1.00)" stroke="none"></rect><rect width="8.157894736842106" height="8.157894736842106" x="84.80994152046783" y="707.0321637426902" fill="hsla(0, 0%, 100%, 1.00)" stroke="none"></rect><rect width="8.157894736842106" height="8.157894736842106" x="129.25438596491227" y="707.0321637426902" fill="hsla(0, 0%, 100%, 1.00)" stroke="none"></rect><rect width="8.157894736842106" height="8.157894736842106" x="173.69883040935673" y="707.0321637426902" fill="hsla(0, 0%, 100%, 1.00)" stroke="none"></rect><rect width="8.157894736842106" height="8.157894736842106" x="218.1432748538012" y="707.0321637426902" fill="hsla(0, 0%, 100%, 1.00)" stroke="none"></rect><rect width="8.157894736842106" height="8.157894736842106" x="262.58771929824564" y="707.0321637426902"></rect><rect width="8.157894736842106" height="8.157894736842106" x="307.0321637426901" y="707.0321637426902" fill="hsla(0, 0%, 100%, 1.00)" stroke="none"></rect><rect width="8.157894736842106" height="8.157894736842106" x="351.47660818713456" y="707.0321637426902" fill="hsla(0, 0%, 100%, 1.00)" stroke="none"></rect><rect width="8.157894736842106" height="8.157894736842106" x="395.921052631579" y="707.0321637426902" fill="hsla(0, 0%, 100%, 1.00)" stroke="none"></rect><rect width="8.157894736842106" height="8.157894736842106" x="440.3654970760235" y="707.0321637426902" fill="hsla(0, 0%, 100%, 1.00)" stroke="none"></rect><rect width="8.157894736842106" height="8.157894736842106" x="484.80994152046793" y="707.0321637426902" fill="hsla(0, 0%, 100%, 1.00)" stroke="none"></rect><rect width="8.157894736842106" height="8.157894736842106" x="529.2543859649123" y="707.0321637426902" fill="hsla(0, 0%, 100%, 1.00)" stroke="none"></rect><rect width="8.157894736842106" height="8.157894736842106" x="573.6988304093568" y="707.0321637426902"></rect><rect width="8.157894736842106" height="8.157894736842106" x="618.1432748538012" y="707.0321637426902" fill="hsla(0, 0%, 100%, 1.00)" stroke="none"></rect><rect width="8.157894736842106" height="8.157894736842106" x="662.5877192982457" y="707.0321637426902"></rect><rect width="8.157894736842106" height="8.157894736842106" x="707.0321637426902" y="707.0321637426902"></rect><rect width="8.157894736842106" height="8.157894736842106" x="751.4766081871346" y="707.0321637426902" fill="hsla(0, 0%, 100%, 1.00)" stroke="none"></rect><rect width="8.157894736842106" height="8.157894736842106" x="795.9210526315791" y="707.0321637426902" fill="hsla(0, 0%, 100%, 1.00)" stroke="none"></rect><rect width="8.157894736842106" height="8.157894736842106" x="-4.078947368421053" y="751.4766081871346" fill="hsla(0, 0%, 100%, 1.00)" stroke="none"></rect><rect width="8.157894736842106" height="8.157894736842106" x="40.36549707602339" y="751.4766081871346" fill="hsla(0, 0%, 100%, 1.00)" stroke="none"></rect><rect width="8.157894736842106" height="8.157894736842106" x="84.80994152046783" y="751.4766081871346"></rect><rect width="8.157894736842106" height="8.157894736842106" x="129.25438596491227" y="751.4766081871346" fill="hsla(0, 0%, 100%, 1.00)" stroke="none"></rect><rect width="8.157894736842106" height="8.157894736842106" x="173.69883040935673" y="751.4766081871346"></rect><rect width="8.157894736842106" height="8.157894736842106" x="218.1432748538012" y="751.4766081871346" fill="hsla(0, 0%, 100%, 1.00)" stroke="none"></rect><rect width="8.157894736842106" height="8.157894736842106" x="262.58771929824564" y="751.4766081871346" fill="hsla(0, 0%, 100%, 1.00)" stroke="none"></rect><rect width="8.157894736842106" height="8.157894736842106" x="307.0321637426901" y="751.4766081871346" fill="hsla(0, 0%, 100%, 1.00)" stroke="none"></rect><rect width="8.157894736842106" height="8.157894736842106" x="351.47660818713456" y="751.4766081871346" fill="hsla(0, 0%, 100%, 1.00)" stroke="none"></rect><rect width="8.157894736842106" height="8.157894736842106" x="395.921052631579" y="751.4766081871346"></rect><rect width="8.157894736842106" height="8.157894736842106" x="440.3654970760235" y="751.4766081871346" fill="hsla(0, 0%, 100%, 1.00)" stroke="none"></rect><rect width="8.157894736842106" height="8.157894736842106" x="484.80994152046793" y="751.4766081871346" fill="hsla(0, 0%, 100%, 1.00)" stroke="none"></rect><rect width="8.157894736842106" height="8.157894736842106" x="529.2543859649123" y="751.4766081871346"></rect><rect width="8.157894736842106" height="8.157894736842106" x="573.6988304093568" y="751.4766081871346" fill="hsla(0, 0%, 100%, 1.00)" stroke="none"></rect><rect width="8.157894736842106" height="8.157894736842106" x="618.1432748538012" y="751.4766081871346" fill="hsla(0, 0%, 100%, 1.00)" stroke="none"></rect><rect width="8.157894736842106" height="8.157894736842106" x="662.5877192982457" y="751.4766081871346" fill="hsla(0, 0%, 100%, 1.00)" stroke="none"></rect><rect width="8.157894736842106" height="8.157894736842106" x="707.0321637426902" y="751.4766081871346"></rect><rect width="8.157894736842106" height="8.157894736842106" x="751.4766081871346" y="751.4766081871346" fill="hsla(0, 0%, 100%, 1.00)" stroke="none"></rect><rect width="8.157894736842106" height="8.157894736842106" x="795.9210526315791" y="751.4766081871346" fill="hsla(0, 0%, 100%, 1.00)" stroke="none"></rect><rect width="8.157894736842106" height="8.157894736842106" x="-4.078947368421053" y="795.9210526315791" fill="hsla(0, 0%, 100%, 1.00)" stroke="none"></rect><rect width="8.157894736842106" height="8.157894736842106" x="40.36549707602339" y="795.9210526315791" fill="hsla(0, 0%, 100%, 1.00)" stroke="none"></rect><rect width="8.157894736842106" height="8.157894736842106" x="84.80994152046783" y="795.9210526315791" fill="hsla(0, 0%, 100%, 1.00)" stroke="none"></rect><rect width="8.157894736842106" height="8.157894736842106" x="129.25438596491227" y="795.9210526315791" fill="hsla(0, 0%, 100%, 1.00)" stroke="none"></rect><rect width="8.157894736842106" height="8.157894736842106" x="173.69883040935673" y="795.9210526315791" fill="hsla(0, 0%, 100%, 1.00)" stroke="none"></rect><rect width="8.157894736842106" height="8.157894736842106" x="218.1432748538012" y="795.9210526315791" fill="hsla(0, 0%, 100%, 1.00)" stroke="none"></rect><rect width="8.157894736842106" height="8.157894736842106" x="262.58771929824564" y="795.9210526315791" fill="hsla(0, 0%, 100%, 1.00)" stroke="none"></rect><rect width="8.157894736842106" height="8.157894736842106" x="307.0321637426901" y="795.9210526315791" fill="hsla(0, 0%, 100%, 1.00)" stroke="none"></rect><rect width="8.157894736842106" height="8.157894736842106" x="351.47660818713456" y="795.9210526315791" fill="hsla(0, 0%, 100%, 1.00)" stroke="none"></rect><rect width="8.157894736842106" height="8.157894736842106" x="395.921052631579" y="795.9210526315791" fill="hsla(0, 0%, 100%, 1.00)" stroke="none"></rect><rect width="8.157894736842106" height="8.157894736842106" x="440.3654970760235" y="795.9210526315791" fill="hsla(0, 0%, 100%, 1.00)" stroke="none"></rect><rect width="8.157894736842106" height="8.157894736842106" x="484.80994152046793" y="795.9210526315791" fill="hsla(0, 0%, 100%, 1.00)" stroke="none"></rect><rect width="8.157894736842106" height="8.157894736842106" x="529.2543859649123" y="795.9210526315791" fill="hsla(0, 0%, 100%, 1.00)" stroke="none"></rect><rect width="8.157894736842106" height="8.157894736842106" x="573.6988304093568" y="795.9210526315791" fill="hsla(0, 0%, 100%, 1.00)" stroke="none"></rect><rect width="8.157894736842106" height="8.157894736842106" x="618.1432748538012" y="795.9210526315791" fill="hsla(0, 0%, 100%, 1.00)" stroke="none"></rect><rect width="8.157894736842106" height="8.157894736842106" x="662.5877192982457" y="795.9210526315791" fill="hsla(0, 0%, 100%, 1.00)" stroke="none"></rect><rect width="8.157894736842106" height="8.157894736842106" x="707.0321637426902" y="795.9210526315791" fill="hsla(0, 0%, 100%, 1.00)" stroke="none"></rect><rect width="8.157894736842106" height="8.157894736842106" x="751.4766081871346" y="795.9210526315791" fill="hsla(0, 0%, 100%, 1.00)" stroke="none"></rect><rect width="8.157894736842106" height="8.157894736842106" x="795.9210526315791" y="795.9210526315791" fill="hsla(0, 0%, 100%, 1.00)" stroke="none"></rect></g></svg>