<svg width="200" height="202" viewBox="0 0 200 202" fill="none" xmlns="http://www.w3.org/2000/svg">
<path d="M1.15197e-07 101.335L19.8571 91.6744L85.9223 91.6744L77.4272 101.335L1.15197e-07 101.335Z" fill="white"/>
<path d="M1.15197e-07 101.335L19.8571 110.995L85.9223 110.995L77.4272 101.335L1.15197e-07 101.335Z" fill="white"/>
<path d="M100.146 201.675L90.4858 181.818V115.752L100.146 124.247V201.675Z" fill="white"/>
<path d="M100.146 201.675L109.806 181.818V115.752L100.146 124.247V201.675Z" fill="white"/>
<path d="M100.049 0.218385L109.709 20.0754L109.709 86.1407L100.049 77.6456L100.049 0.218385Z" fill="white"/>
<path d="M100.049 0.218385L90.3886 20.0754L90.3886 86.1407L100.049 77.6456L100.049 0.218385Z" fill="white"/>
<path d="M200 101.335L180.143 110.995L114.078 110.995L122.573 101.335L200 101.335Z" fill="white"/>
<path d="M200 101.335L180.143 91.6748L114.078 91.6749L122.573 101.335L200 101.335Z" fill="white"/>
<path d="M181.665 183.388L160.793 176.177L114.078 129.462L114.078 115.801L181.665 183.388Z" fill="white"/>
<path d="M181.665 183.388L174.455 162.516L127.74 115.801L114.078 115.801L181.665 183.388Z" fill="white"/>
<path d="M17.511 183.388L24.7212 162.516L71.4364 115.8L85.098 115.801L17.511 183.388Z" fill="white"/>
<path d="M17.511 183.388L38.3828 176.177L85.098 129.462L85.098 115.801L17.511 183.388Z" fill="white"/>
<path d="M17.51 19.1986L38.3819 26.4089L85.0971 73.1241L85.0971 86.7856L17.51 19.1986Z" fill="white"/>
<path d="M17.51 19.1986L24.7203 40.0704L71.4355 86.7856L85.0971 86.7856L17.51 19.1986Z" fill="white"/>
<path d="M181.7 19.1989L174.49 40.0707L127.775 86.7859L114.113 86.7859L181.7 19.1989Z" fill="white"/>
<path d="M181.7 19.1989L160.828 26.4091L114.113 73.1244L114.113 86.7859L181.7 19.1989Z" fill="white"/>
<path d="M200 101.335L180.143 110.995L114.078 110.995L122.573 101.335L200 101.335Z" fill="white"/>
<path d="M200 101.335L180.143 91.6748L114.078 91.6749L122.573 101.335L200 101.335Z" fill="white"/>
<path d="M114.078 136.821L124.162 146.966V184.102L114.078 173.568V136.821Z" fill="white"/>
<path d="M136.796 86.1407L146.942 76.0564L184.077 76.0564L173.543 86.1407L136.796 86.1407Z" fill="white"/>
<path d="M16.0196 125.85L26.1652 115.765L63.3008 115.765L52.7668 125.85L16.0196 125.85Z" fill="white"/>
<path d="M136.699 115.752L146.845 125.849L183.98 125.849L173.446 115.752L136.699 115.752Z" fill="white"/>
<path d="M15.9225 76.8199L26.0682 86.917L63.2041 86.917L52.67 76.8199L15.9225 76.8199Z" fill="white"/>
<path d="M124.175 19.5389L114.078 29.6846L114.078 66.8204L124.175 56.2864L124.175 19.5389Z" fill="white"/>
<path d="M76.1172 184.199L86.2143 174.053L86.2143 136.917L76.1172 147.451L76.1172 184.199Z" fill="white"/>
<path d="M75.8252 19.4421L85.9096 29.5877V66.7233L75.8252 56.1893V19.4421Z" fill="white"/>
<path d="M105.03 96.5439C101.728 93.2542 100.145 85.6551 100.145 85.6551C100.145 85.6551 97.9255 93.2608 94.4163 96.5439C91.2611 99.4957 84.4658 101.383 84.4658 101.383C84.4658 101.383 91.2549 102.911 94.4163 105.739C98.1234 109.054 100.145 117.111 100.145 117.111C100.145 117.111 101.939 109.058 105.573 105.739C108.784 102.805 115.825 101.383 115.825 101.383C115.825 101.383 108.303 99.8041 105.03 96.5439Z" fill="white"/>
<path d="M61.0503 177.806C57.7482 174.516 56.1655 166.917 56.1655 166.917C56.1655 166.917 53.9455 174.523 50.4364 177.806C47.2811 180.758 40.4858 182.646 40.4858 182.646C40.4858 182.646 47.2749 184.173 50.4364 187.001C54.1435 190.317 56.1655 198.374 56.1655 198.374C56.1655 198.374 57.9592 190.32 61.593 187.001C64.8044 184.067 71.8451 182.646 71.8451 182.646C71.8451 182.646 64.3228 181.066 61.0503 177.806Z" fill="white"/>
<path d="M149.594 14.602C146.292 11.3123 144.709 3.71324 144.709 3.71324C144.709 3.71324 142.489 11.319 138.98 14.602C135.825 17.5538 129.029 19.4414 129.029 19.4414C129.029 19.4414 135.818 20.9692 138.98 23.7969C142.687 27.1126 144.709 35.1696 144.709 35.1696C144.709 35.1696 146.503 27.1164 150.136 23.7969C153.348 20.8633 160.389 19.4414 160.389 19.4414C160.389 19.4414 152.866 17.8622 149.594 14.602Z" fill="white"/>
<path d="M20.9531 51.4953C17.651 48.2056 16.0683 40.6066 16.0683 40.6066C16.0683 40.6066 13.8484 48.2123 10.3392 51.4953C7.18397 54.4471 0.388672 56.3347 0.388672 56.3347C0.388672 56.3347 7.17775 57.8626 10.3392 60.6902C14.0463 64.0059 16.0683 72.0629 16.0683 72.0629C16.0683 72.0629 17.8621 64.0097 21.4958 60.6902C24.7072 57.7566 31.7479 56.3347 31.7479 56.3347C31.7479 56.3347 24.2256 54.7556 20.9531 51.4953Z" fill="white"/>
<path d="M188.817 141.495C185.515 138.206 183.933 130.607 183.933 130.607C183.933 130.607 181.713 138.212 178.203 141.495C175.048 144.447 168.253 146.335 168.253 146.335C168.253 146.335 175.042 147.863 178.203 150.69C181.911 154.006 183.933 162.063 183.933 162.063C183.933 162.063 185.726 154.01 189.36 150.69C192.571 147.757 199.612 146.335 199.612 146.335C199.612 146.335 192.09 144.756 188.817 141.495Z" fill="white"/>
</svg>
