<svg width="400" height="280" viewBox="0 0 400 280" fill="none" xmlns="http://www.w3.org/2000/svg">
<g clip-path="url(#clip0_4_7)">
<path d="M353.24 272.961L346.548 272.961L343.364 247.144L353.241 247.144L353.24 272.961Z" fill="#FFB8B8"/>
<path d="M354.946 279.449L333.369 279.448V279.175C333.369 276.947 334.254 274.811 335.829 273.236C337.404 271.66 339.54 270.775 341.767 270.775H341.768L354.947 270.776L354.946 279.449Z" fill="#2F2E41"/>
<path d="M382.775 256.506L378.431 261.597L356.729 247.262L363.141 239.747L382.775 256.506Z" fill="#FFB8B8"/>
<path d="M388.817 259.419L374.811 275.836L374.603 275.659C372.909 274.212 371.859 272.152 371.683 269.931C371.507 267.711 372.22 265.511 373.666 263.816L373.666 263.816L382.221 253.789L388.817 259.419Z" fill="#2F2E41"/>
<path d="M305.724 145.998L303.641 165.213L387.849 164.012L351.125 104.163L321.141 103.086L305.724 145.998Z" fill="#2F2E41"/>
<path opacity="0.28" d="M305.724 145.998L303.641 165.213L387.849 164.012L351.125 104.163L321.141 103.086L305.724 145.998Z" fill="black"/>
<path d="M322.283 149.297L319.31 166.878V182.593L343.279 190.419C343.279 190.419 340.473 251.46 344.214 255.348L344.122 264.733L354.578 265.208L354.663 258.603L359.096 209.232L361.707 172.984L357.474 145.502L322.283 149.297Z" fill="#2F2E41"/>
<path d="M340.853 164.431L319.31 182.593C319.31 182.593 318.049 215.362 321.251 219.205C324.001 222.506 359.767 250.976 359.767 250.976C359.767 250.976 366.124 256.808 369.686 256.901C373.249 256.994 377.392 249.521 377.392 249.521L369.142 243.251C369.142 243.251 347.768 223.297 341.422 215.362C338.861 212.16 338.861 211.84 338.861 211.84L339.736 198.522L348.54 173.807L340.853 164.431Z" fill="#2F2E41"/>
<path d="M317.981 77.4326L308.693 76.574L300.268 77.9783L282.428 77.984L280.908 90.9163L297.188 94.5601L301.156 92.6153L317.693 98.9175L317.981 77.4326Z" fill="#2F2E41"/>
<path d="M329.074 77.3921C329.074 77.3921 348.786 75.5448 353.269 79.0675C357.751 82.5901 367.357 152.403 367.357 152.403L329.074 154.564L322.211 149.841L324.159 114.988L329.074 77.3921Z" fill="#CCCCCC"/>
<path d="M335.091 76.9572L313.347 77.4345L293.075 169.055L309.084 172.578L335.091 76.9572Z" fill="#2F2E41"/>
<path d="M350.549 76.1828L367.677 81.5446L366.704 119.189L387.849 164.195L362.991 166.814L343.343 118.216L350.549 76.1828Z" fill="#2F2E41"/>
<path d="M378.793 168.767C379.393 168.238 379.871 167.584 380.191 166.851C380.511 166.118 380.667 165.323 380.647 164.523C380.628 163.723 380.433 162.937 380.077 162.221C379.72 161.505 379.211 160.875 378.585 160.377L382.031 148.354L375.237 144.477L370.609 161.524C369.842 162.632 369.507 163.982 369.669 165.319C369.83 166.657 370.476 167.888 371.485 168.781C372.494 169.674 373.795 170.165 375.142 170.163C376.489 170.16 377.788 169.663 378.793 168.767Z" fill="#FFB8B8"/>
<path d="M357.751 82.5901L367.886 81.7109C367.886 81.7109 376.985 91.2288 379.055 98.5983C381.125 105.968 383.366 129.025 383.366 129.025L382.431 162.756L370.584 154.71L369.79 125.697L357.751 82.5901Z" fill="#2F2E41"/>
<path d="M355.307 65.6362C359.112 58.6728 356.554 49.9421 349.592 46.1355C342.63 42.329 333.901 44.8882 330.095 51.8515C326.289 58.8149 328.848 67.5456 335.81 71.3522C342.772 75.1587 351.501 72.5995 355.307 65.6362Z" fill="#FFB8B8"/>
<path d="M341.099 52.745C339.214 52.3093 337.257 52.7921 335.348 53.105C333.439 53.4179 331.335 53.5211 329.72 52.4557C328.528 51.6689 327.794 50.3672 327.106 49.1151C326.818 48.668 326.627 48.1661 326.543 47.6412C326.462 46.7152 327.051 45.8703 327.677 45.1827C330.582 41.9889 334.827 40.2408 339.108 39.6855C342.638 39.1593 346.246 39.5998 349.546 40.9604C352.796 42.386 355.589 44.9968 356.867 48.308C357.455 50.0028 357.823 51.7663 357.96 53.5551C358.153 54.8712 358.178 56.2065 358.034 57.5289C357.862 58.5091 357.604 59.4725 357.264 60.4078L355.148 66.7998C354.995 67.4038 354.711 67.9665 354.315 68.4474C354.112 68.683 353.838 68.8463 353.534 68.9129C353.23 68.9795 352.913 68.9458 352.629 68.8169C352.799 68.1226 352.825 67.401 352.705 66.6964C352.639 66.3453 352.469 66.022 352.218 65.7682C351.966 65.5145 351.644 65.3419 351.294 65.2727C350.514 65.1899 349.847 65.7947 349.107 66.0552C348.769 66.1556 348.413 66.1884 348.062 66.1515C347.711 66.1146 347.37 66.0089 347.06 65.8404C346.749 65.6719 346.475 65.4438 346.253 65.1693C346.03 64.8948 345.864 64.5791 345.764 64.2404C345.743 64.1721 345.726 64.1031 345.711 64.0333C345.594 63.3026 345.791 62.5203 345.514 61.834C345.189 61.03 344.329 60.6087 343.682 60.0309C343.092 59.4865 342.67 58.785 342.465 58.0088C342.26 57.2326 342.281 56.4141 342.526 55.6494C342.699 55.1175 343.187 54.8756 343.09 54.2645C342.961 53.4628 341.78 52.9023 341.099 52.745Z" fill="#2F2E41"/>
<path d="M181.377 113.486H0V0H181.377V113.486Z" fill="white"/>
<path d="M181.377 113.486H0V0H181.377V113.486ZM0.828205 112.657H180.548V0.828364H0.828205V112.657Z" fill="#3F3D56"/>
<path d="M159.222 270.668H55.6967V157.182H159.222V270.668Z" fill="white"/>
<path d="M159.222 270.668H55.6967V157.182H159.222V270.668ZM56.5249 269.839H158.394V158.01H56.5249V269.839Z" fill="#3F3D56"/>
<path d="M145.143 259.949H123.609V260.822H145.143V259.949Z" fill="#3F3D56"/>
<path d="M145.143 262.569H123.609V263.442H145.143V262.569Z" fill="#3F3D56"/>
<path d="M145.143 265.188H123.609V266.061H145.143V265.188Z" fill="#3F3D56"/>
<path d="M107.459 177.477V186.589C112.865 186.589 118.149 188.192 122.644 191.196C127.138 194.199 130.641 198.469 132.71 203.464C134.778 208.459 135.32 213.955 134.265 219.258C133.21 224.56 130.607 229.431 126.785 233.254L133.227 239.697C138.323 234.6 141.794 228.106 143.2 221.035C144.606 213.965 143.885 206.637 141.126 199.977C138.368 193.317 133.698 187.624 127.705 183.619C121.712 179.614 114.667 177.477 107.459 177.477Z" fill="#E6E6E6"/>
<path d="M133.227 239.697L126.785 233.254C122.112 237.929 115.904 240.751 109.311 241.198C102.717 241.645 96.1847 239.687 90.9239 235.686L85.4099 242.943C92.4254 248.276 101.135 250.886 109.927 250.289C118.719 249.692 126.996 245.929 133.227 239.697Z" fill="#575A89"/>
<path d="M80.1287 213.925C80.1287 210.335 80.8356 206.78 82.2091 203.464C83.5826 200.147 85.5958 197.134 88.1337 194.595C90.6715 192.057 93.6845 190.043 97.0004 188.67C100.316 187.296 103.87 186.589 107.459 186.589V177.477C99.8309 177.477 92.3947 179.871 86.1991 184.323C80.0034 188.774 75.3607 195.058 72.9253 202.289C70.4899 209.519 70.3847 217.332 72.6246 224.626C74.8644 231.919 79.3363 238.326 85.4098 242.943L90.9239 235.686C87.5665 233.139 84.8447 229.849 82.9717 226.073C81.0987 222.298 80.1256 218.139 80.1287 213.925Z" fill="black"/>
<path d="M312.44 200.257H208.914V86.7709H312.44V200.257Z" fill="white"/>
<path d="M312.44 200.257H208.914V86.7709H312.44V200.257ZM209.742 199.428H311.612V87.5993H209.742V199.428Z" fill="#3F3D56"/>
<path d="M242.457 156.146H223.822V185.967H242.457V156.146Z" fill="#575A89"/>
<path d="M269.373 135.852H250.739V185.967H269.373V135.852Z" fill="#E6E6E6"/>
<path d="M296.29 112.243H277.655V185.967H296.29V112.243Z" fill="black"/>
<path d="M302.501 186.796H218.853V100.232H219.681V185.968H302.501V186.796Z" fill="#3F3D56"/>
<path d="M282.334 89.7923C285.484 89.7923 288.037 87.2383 288.037 84.0878C288.037 80.9372 285.484 78.3832 282.334 78.3832C279.184 78.3832 276.63 80.9372 276.63 84.0878C276.63 87.2383 279.184 89.7923 282.334 89.7923Z" fill="#FFB8B8"/>
<path d="M399.525 280H310.645C310.519 280 310.398 279.95 310.309 279.861C310.22 279.772 310.17 279.651 310.17 279.525C310.17 279.399 310.22 279.278 310.309 279.188C310.398 279.099 310.519 279.049 310.645 279.049H399.525C399.651 279.049 399.772 279.099 399.861 279.188C399.95 279.278 400 279.399 400 279.525C400 279.651 399.95 279.772 399.861 279.861C399.772 279.95 399.651 280 399.525 280Z" fill="#CCCCCC"/>
<path d="M156.188 89.7515H25.1889C25.0802 89.7515 24.9759 89.7083 24.899 89.6314C24.8221 89.5545 24.7789 89.4502 24.7789 89.3414V26.5416C24.7789 26.4329 24.8221 26.3286 24.899 26.2517C24.9759 26.1748 25.0802 26.1316 25.1889 26.1316C25.2976 26.1316 25.4019 26.1748 25.4788 26.2517C25.5557 26.3286 25.5989 26.4329 25.5989 26.5416V88.9314H156.188C156.242 88.9312 156.295 88.9417 156.345 88.9622C156.395 88.9827 156.44 89.0129 156.478 89.051C156.517 89.0891 156.547 89.1343 156.568 89.1842C156.588 89.234 156.599 89.2874 156.599 89.3414C156.599 89.3954 156.588 89.4488 156.568 89.4987C156.547 89.5485 156.517 89.5938 156.478 89.6319C156.44 89.6699 156.395 89.7001 156.345 89.7206C156.295 89.7412 156.242 89.7516 156.188 89.7515Z" fill="#3F3D56"/>
<path d="M53.1776 85.2409H41.2628C40.9401 85.2406 40.6308 85.1122 40.4027 84.8841C40.1745 84.6559 40.0462 84.3465 40.0458 84.0238V67.596C40.0462 67.2733 40.1745 66.9639 40.4027 66.7357C40.6308 66.5076 40.9401 66.3792 41.2628 66.3788H53.1776C53.5002 66.3792 53.8096 66.5076 54.0377 66.7357C54.2659 66.9639 54.3942 67.2733 54.3946 67.596V84.0238C54.3942 84.3465 54.2659 84.6559 54.0377 84.8841C53.8096 85.1122 53.5003 85.2406 53.1776 85.2409Z" fill="black"/>
<path d="M74.9058 85.241H62.991C62.6683 85.2406 62.359 85.1123 62.1309 84.8841C61.9027 84.6559 61.7744 84.3466 61.774 84.0239V52.0143C61.7744 51.6916 61.9027 51.3822 62.1309 51.1541C62.359 50.9259 62.6683 50.7975 62.991 50.7972H74.9058C75.2285 50.7975 75.5378 50.9259 75.7659 51.1541C75.9941 51.3822 76.1224 51.6916 76.1228 52.0143V84.0239C76.1224 84.3466 75.9941 84.6559 75.7659 84.8841C75.5378 85.1123 75.2285 85.2406 74.9058 85.241Z" fill="black"/>
<path d="M96.634 85.2409H84.7192C84.3965 85.2406 84.0872 85.1122 83.8591 84.8841C83.6309 84.6559 83.5026 84.3465 83.5022 84.0238V67.596C83.5026 67.2733 83.6309 66.9639 83.8591 66.7357C84.0872 66.5076 84.3965 66.3792 84.7192 66.3788H96.634C96.9567 66.3792 97.266 66.5076 97.4941 66.7357C97.7223 66.9639 97.8507 67.2733 97.851 67.596V84.0238C97.8507 84.3465 97.7223 84.6559 97.4941 84.8841C97.266 85.1122 96.9567 85.2406 96.634 85.2409Z" fill="black"/>
<path d="M118.362 85.241H106.447C106.132 85.2478 105.827 85.1293 105.599 84.9115C105.371 84.6937 105.238 84.3943 105.23 84.079V45.8085C105.238 45.4932 105.371 45.1938 105.599 44.976C105.827 44.7582 106.132 44.6397 106.447 44.6465H118.362C118.678 44.6397 118.983 44.7582 119.211 44.976C119.439 45.1938 119.571 45.4932 119.579 45.8085V84.079C119.571 84.3943 119.439 84.6937 119.211 84.9115C118.983 85.1293 118.678 85.2478 118.362 85.241Z" fill="black"/>
<path d="M140.09 85.241H128.176C127.853 85.2406 127.544 85.1122 127.315 84.8841C127.087 84.6559 126.959 84.3465 126.959 84.0238V34.7924C126.959 34.4697 127.087 34.1603 127.315 33.9321C127.544 33.704 127.853 33.5756 128.176 33.5753H140.09C140.413 33.5756 140.722 33.704 140.951 33.9321C141.179 34.1603 141.307 34.4697 141.307 34.7924V84.0238C141.307 84.3465 141.179 84.6559 140.951 84.8841C140.722 85.1122 140.413 85.2406 140.09 85.241Z" fill="black"/>
<path d="M47.2202 61.4583C48.5787 61.4583 49.68 60.3568 49.68 58.9981C49.68 57.6393 48.5787 56.5378 47.2202 56.5378C45.8617 56.5378 44.7604 57.6393 44.7604 58.9981C44.7604 60.3568 45.8617 61.4583 47.2202 61.4583Z" fill="#3F3D56"/>
<path d="M68.9484 45.4666C70.3069 45.4666 71.4082 44.3651 71.4082 43.0063C71.4082 41.6475 70.3069 40.546 68.9484 40.546C67.5899 40.546 66.4886 41.6475 66.4886 43.0063C66.4886 44.3651 67.5899 45.4666 68.9484 45.4666Z" fill="#3F3D56"/>
<path d="M90.6766 61.4583C92.0351 61.4583 93.1364 60.3568 93.1364 58.9981C93.1364 57.6393 92.0351 56.5378 90.6766 56.5378C89.3181 56.5378 88.2168 57.6393 88.2168 58.9981C88.2168 60.3568 89.3181 61.4583 90.6766 61.4583Z" fill="#3F3D56"/>
<path d="M112.405 37.6757C113.763 37.6757 114.865 36.5742 114.865 35.2155C114.865 33.8567 113.763 32.7552 112.405 32.7552C111.046 32.7552 109.945 33.8567 109.945 35.2155C109.945 36.5742 111.046 37.6757 112.405 37.6757Z" fill="#3F3D56"/>
<path d="M134.133 28.6547C135.492 28.6547 136.593 27.5532 136.593 26.1945C136.593 24.8357 135.492 23.7342 134.133 23.7342C132.775 23.7342 131.673 24.8357 131.673 26.1945C131.673 27.5532 132.775 28.6547 134.133 28.6547Z" fill="#3F3D56"/>
<path d="M90.7283 59.5492L68.9485 43.2326L47.4659 59.3262L46.9744 58.6697L68.9485 42.2077L90.6246 58.4468L112.165 34.8702L112.252 34.835L133.98 26.0785L134.286 26.8396L112.644 35.5609L90.7283 59.5492Z" fill="#3F3D56"/>
</g>
<defs>
<clipPath id="clip0_4_7">
<rect width="400" height="280" fill="white"/>
</clipPath>
</defs>
</svg>
